<svg width="64" height="64" viewBox="0 0 64 64" fill="none" xmlns="http://www.w3.org/2000/svg">
    <rect width="64" height="64" rx="18" fill="#0F172A"/>

    <g fill="white" fill-opacity="0.5">
        <path d="M24 14C21.7909 14 20 15.7909 20 18V46C20 48.2091 21.7909 50 24 50C26.2091 50 28 48.2091 28 46V36H34.3431L43.1716 44.8284C44.7337 46.3905 47.2663 46.3905 48.8284 44.8284C50.3905 43.2663 50.3905 40.7337 48.8284 39.1716L41.6569 32C45.3866 29.7616 48 25.6684 48 21C48 17.134 44.866 14 41 14H24ZM28 22H40C40.5523 22 41 22.4477 41 23V27C41 27.5523 40.5523 28 40 28H28V22Z"/>
    </g>

    <circle cx="34" cy="32" r="4" fill="white" fill-opacity="0.9"/>

</svg>